<svg version="1.0" xmlns="http://www.w3.org/2000/svg" width="246px" height="346px" viewBox="0 0 246 346" preserveAspectRatio="xMidYMid meet">
 <g fill="#fefdfc">
  
 </g>
 <g fill="#e85b09">
  <path d="M2.42 343.94 l-0.17 -0.28 1.25 -1.91 c1.28 -1.99 28.90 -45.38 43.02 -67.62 l7.92 -12.47 0.48 0 0.48 0 1.99 1.25 c2.90 1.85 17.34 10.99 21.61 13.70 14.44 9.17 36.39 23.15 41.85 26.62 3.62 2.31 9.71 6.18 13.55 8.63 3.84 2.45 7.12 4.47 7.26 4.47 0.17 0 1.37 -1.25 2.68 -2.76 1.34 -1.54 4.33 -4.95 6.69 -7.63 6.72 -7.57 10.39 -11.90 10.39 -12.24 0 -0.17 -1.62 -2.62 -3.59 -5.41 -1.99 -2.82 -4.93 -6.98 -6.52 -9.25 -1.59 -2.28 -4.56 -6.49 -6.61 -9.40 -2.02 -2.90 -8.94 -12.76 -15.38 -21.92 -6.41 -9.17 -14.12 -20.19 -17.17 -24.49 -3.02 -4.30 -6.21 -8.85 -7.06 -10.11 -0.88 -1.25 -3.08 -4.38 -4.90 -6.98 -7.20 -10.19 -12.98 -18.45 -18.42 -26.19 -3.10 -4.47 -10.02 -14.32 -15.38 -21.92 -32.83 -46.81 -38.24 -54.58 -38.24 -55.01 0 -0.26 6.06 -7 15.52 -17.28 5.58 -6.09 12.84 -14.04 28.47 -31.21 11.47 -12.61 26.08 -28.56 33.88 -37.01 2.05 -2.22 6.01 -6.55 8.83 -9.62 l5.13 -5.61 0.77 0 0.80 0 29.95 7.40 c16.49 4.07 31.95 7.92 34.37 8.51 l4.38 1.14 1.59 -0.85 c0.88 -0.46 2.36 -1.34 3.30 -1.94 2.82 -1.82 10.42 -6.43 12.24 -7.43 0.94 -0.51 2.11 -1.22 2.56 -1.57 0.48 -0.37 1.40 -0.91 2.05 -1.25 l1.20 -0.60 0.65 0 0.65 0 3.99 3.82 3.99 3.79 -0.46 0.54 c-0.97 1.14 -29.01 32.26 -35.39 39.26 l-6.75 7.40 -0.57 -0.06 c-0.31 -0.06 -2.85 -0.97 -5.61 -2.05 -2.76 -1.08 -9.34 -3.67 -14.58 -5.72 -5.24 -2.05 -13.47 -5.27 -18.28 -7.15 l-8.74 -3.39 -0.94 0 -0.97 0 -1.99 2.05 c-1.11 1.14 -7 7.46 -13.10 14.04 -6.09 6.58 -15.03 16.23 -19.90 21.47 -4.84 5.21 -8.85 9.60 -8.91 9.74 l-0.11 0.26 8.66 9.17 c4.75 5.07 17.85 18.99 29.13 30.98 11.25 11.99 22.27 23.72 24.49 26.05 2.22 2.36 5.10 5.44 6.41 6.83 3.87 4.19 8.11 8.71 23.38 24.91 51.88 55.15 62.90 66.94 62.90 67.28 0 0.11 -0.94 1.40 -2.05 2.85 -2.85 3.62 -20.87 26.48 -28.67 36.36 -3.53 4.47 -8.54 10.82 -11.13 14.09 -2.59 3.30 -7.32 9.25 -10.48 13.24 -3.16 3.99 -8.46 10.73 -11.82 14.95 l-6.06 7.69 -84.19 0.09 -84.16 0.06 -0.17 -0.28z" data-index="1" style="opacity: 1;"></path>
 </g>
</svg>